<svg xmlns="http://www.w3.org/2000/svg" viewBox="0 0 800 420" width="800" height="420">
  <rect width="800" height="420" fill="#0f172a"/>
  <text x="400" y="36" text-anchor="middle" font-family="system-ui, sans-serif" font-size="18" font-weight="700" fill="#f8fafc">Borders, Rounded y Ring</text>

  <!-- Border Width Scale -->
  <text x="30" y="68" font-family="system-ui, sans-serif" font-size="11" fill="#94a3b8">Border Width</text>
  <rect x="30" y="78" width="80" height="44" rx="6" ry="6" fill="none" stroke="#38bdf8" stroke-width="1"/>
  <text x="70" y="106" text-anchor="middle" font-family="monospace" font-size="10" fill="#7dd3fc">border</text>
  <rect x="130" y="78" width="80" height="44" rx="6" ry="6" fill="none" stroke="#38bdf8" stroke-width="2"/>
  <text x="170" y="106" text-anchor="middle" font-family="monospace" font-size="10" fill="#7dd3fc">border-2</text>
  <rect x="230" y="78" width="80" height="44" rx="6" ry="6" fill="none" stroke="#38bdf8" stroke-width="4"/>
  <text x="270" y="106" text-anchor="middle" font-family="monospace" font-size="10" fill="#7dd3fc">border-4</text>
  <rect x="330" y="78" width="80" height="44" rx="6" ry="6" fill="none" stroke="#38bdf8" stroke-width="8"/>
  <text x="370" y="106" text-anchor="middle" font-family="monospace" font-size="10" fill="#7dd3fc">border-8</text>

  <!-- Rounded Scale -->
  <text x="30" y="152" font-family="system-ui, sans-serif" font-size="11" fill="#94a3b8">Border Radius Scale</text>
  <rect x="30"  y="162" width="52" height="44" rx="0" ry="0" fill="#0ea5e9" opacity="0.15" stroke="#38bdf8" stroke-width="1"/>
  <text x="56"  y="190" text-anchor="middle" font-family="monospace" font-size="9" fill="#7dd3fc">none</text>
  <rect x="96"  y="162" width="52" height="44" rx="2" ry="2" fill="#0ea5e9" opacity="0.15" stroke="#38bdf8" stroke-width="1"/>
  <text x="122" y="190" text-anchor="middle" font-family="monospace" font-size="9" fill="#7dd3fc">sm</text>
  <rect x="162" y="162" width="52" height="44" rx="4" ry="4" fill="#0ea5e9" opacity="0.15" stroke="#38bdf8" stroke-width="1"/>
  <text x="188" y="190" text-anchor="middle" font-family="monospace" font-size="9" fill="#7dd3fc">base</text>
  <rect x="228" y="162" width="52" height="44" rx="6" ry="6" fill="#0ea5e9" opacity="0.15" stroke="#38bdf8" stroke-width="1"/>
  <text x="254" y="190" text-anchor="middle" font-family="monospace" font-size="9" fill="#7dd3fc">md</text>
  <rect x="294" y="162" width="52" height="44" rx="8" ry="8" fill="#0ea5e9" opacity="0.15" stroke="#38bdf8" stroke-width="1"/>
  <text x="320" y="190" text-anchor="middle" font-family="monospace" font-size="9" fill="#7dd3fc">lg</text>
  <rect x="360" y="162" width="52" height="44" rx="12" ry="12" fill="#0ea5e9" opacity="0.15" stroke="#38bdf8" stroke-width="1"/>
  <text x="386" y="190" text-anchor="middle" font-family="monospace" font-size="9" fill="#7dd3fc">xl</text>
  <rect x="426" y="162" width="52" height="44" rx="16" ry="16" fill="#0ea5e9" opacity="0.15" stroke="#38bdf8" stroke-width="1"/>
  <text x="452" y="190" text-anchor="middle" font-family="monospace" font-size="9" fill="#7dd3fc">2xl</text>
  <rect x="492" y="162" width="52" height="44" rx="22" ry="22" fill="#0ea5e9" opacity="0.15" stroke="#38bdf8" stroke-width="1"/>
  <text x="518" y="190" text-anchor="middle" font-family="monospace" font-size="9" fill="#7dd3fc">full</text>

  <!-- Ring vs Border vs Outline -->
  <text x="30" y="238" font-family="system-ui, sans-serif" font-size="11" fill="#94a3b8">Ring vs Border vs Outline</text>
  <!-- Border — ocupa espacio -->
  <rect x="30" y="250" width="160" height="52" rx="8" ry="8" fill="#1e293b" stroke="#38bdf8" stroke-width="2"/>
  <text x="110" y="271" text-anchor="middle" font-family="monospace" font-size="11" fill="#38bdf8">border-2</text>
  <text x="110" y="287" text-anchor="middle" font-family="system-ui, sans-serif" font-size="9" fill="#64748b">ocupa espacio en layout</text>
  <!-- Ring — no ocupa espacio -->
  <rect x="210" y="254" width="160" height="52" rx="8" ry="8" fill="#1e293b"/>
  <rect x="206" y="250" width="168" height="60" rx="10" ry="10" fill="none" stroke="#38bdf8" stroke-width="2" stroke-dasharray="4,2"/>
  <text x="290" y="275" text-anchor="middle" font-family="monospace" font-size="11" fill="#38bdf8">ring-2</text>
  <text x="290" y="291" text-anchor="middle" font-family="system-ui, sans-serif" font-size="9" fill="#64748b">no ocupa espacio (box-shadow)</text>
  <!-- foco label -->
  <rect x="390" y="258" width="100" height="36" rx="8" ry="8" fill="#0f172a" stroke="#38bdf8" stroke-width="1" stroke-dasharray="3,2"/>
  <text x="440" y="282" text-anchor="middle" font-family="system-ui, sans-serif" font-size="10" fill="#94a3b8">focus-visible:ring</text>

  <!-- Overflow hidden diagram -->
  <text x="30" y="340" font-family="system-ui, sans-serif" font-size="11" fill="#94a3b8">overflow-hidden + rounded-xl (necesario para imágenes)</text>
  <!-- sin overflow hidden -->
  <rect x="30" y="354" width="120" height="48" rx="12" fill="#0f172a" stroke="#ef4444" stroke-width="1"/>
  <rect x="30" y="354" width="120" height="24" fill="#ef4444" opacity="0.5"/>
  <text x="90" y="415" text-anchor="middle" font-family="system-ui,sans-serif" font-size="9" fill="#ef4444">sin overflow-hidden ✗</text>
  <!-- con overflow hidden -->
  <clipPath id="w4-clip">
    <rect x="170" y="354" width="120" height="48" rx="12"/>
  </clipPath>
  <rect x="170" y="354" width="120" height="48" rx="12" fill="#0f172a" stroke="#22c55e" stroke-width="1"/>
  <rect x="170" y="354" width="120" height="24" fill="#22c55e" opacity="0.5" clip-path="url(#w4-clip)"/>
  <text x="230" y="415" text-anchor="middle" font-family="system-ui,sans-serif" font-size="9" fill="#22c55e">overflow-hidden ✓</text>
</svg>