<svg xmlns="http://www.w3.org/2000/svg" viewBox="0 0 800 340" width="800" height="340" font-family="system-ui, sans-serif">
  <rect width="800" height="340" fill="#0f172a"/>

  <!-- Title -->
  <text x="400" y="32" text-anchor="middle" font-size="15" font-weight="700" fill="#f1f5f9" letter-spacing="1">PALETA DE COLORES TAILWIND — ESCALA 50 a 950</text>

  <!-- Color row: sky -->
  <text x="14" y="68" font-size="11" fill="#94a3b8">sky</text>
  <!-- shades: 50 100 200 300 400 500 600 700 800 900 950 -->
  <rect x="50" y="52" width="66" height="26" rx="4" fill="#f0f9ff"/>
  <text x="83" y="69" text-anchor="middle" font-size="9" fill="#334155">50</text>
  <rect x="120" y="52" width="66" height="26" rx="4" fill="#e0f2fe"/>
  <text x="153" y="69" text-anchor="middle" font-size="9" fill="#334155">100</text>
  <rect x="190" y="52" width="66" height="26" rx="4" fill="#bae6fd"/>
  <text x="223" y="69" text-anchor="middle" font-size="9" fill="#334155">200</text>
  <rect x="260" y="52" width="66" height="26" rx="4" fill="#7dd3fc"/>
  <text x="293" y="69" text-anchor="middle" font-size="9" fill="#334155">300</text>
  <rect x="330" y="52" width="66" height="26" rx="4" fill="#38bdf8"/>
  <text x="363" y="69" text-anchor="middle" font-size="9" fill="#334155">400</text>
  <rect x="400" y="52" width="66" height="26" rx="4" fill="#0ea5e9"/>
  <text x="433" y="69" text-anchor="middle" font-size="9" fill="#fff">500</text>
  <rect x="470" y="52" width="66" height="26" rx="4" fill="#0284c7"/>
  <text x="503" y="69" text-anchor="middle" font-size="9" fill="#fff">600</text>
  <rect x="540" y="52" width="66" height="26" rx="4" fill="#0369a1"/>
  <text x="573" y="69" text-anchor="middle" font-size="9" fill="#fff">700</text>
  <rect x="610" y="52" width="66" height="26" rx="4" fill="#075985"/>
  <text x="643" y="69" text-anchor="middle" font-size="9" fill="#fff">800</text>
  <rect x="680" y="52" width="55" height="26" rx="4" fill="#0c4a6e"/>
  <text x="707" y="69" text-anchor="middle" font-size="9" fill="#fff">900+</text>

  <!-- Color row: emerald -->
  <text x="14" y="108" font-size="11" fill="#94a3b8">emerald</text>
  <rect x="50" y="92" width="66" height="26" rx="4" fill="#ecfdf5"/>
  <text x="83" y="109" text-anchor="middle" font-size="9" fill="#334155">50</text>
  <rect x="120" y="92" width="66" height="26" rx="4" fill="#d1fae5"/>
  <text x="153" y="109" text-anchor="middle" font-size="9" fill="#334155">100</text>
  <rect x="190" y="92" width="66" height="26" rx="4" fill="#a7f3d0"/>
  <text x="223" y="109" text-anchor="middle" font-size="9" fill="#334155">200</text>
  <rect x="260" y="92" width="66" height="26" rx="4" fill="#6ee7b7"/>
  <text x="293" y="109" text-anchor="middle" font-size="9" fill="#334155">300</text>
  <rect x="330" y="92" width="66" height="26" rx="4" fill="#34d399"/>
  <text x="363" y="109" text-anchor="middle" font-size="9" fill="#334155">400</text>
  <rect x="400" y="92" width="66" height="26" rx="4" fill="#10b981"/>
  <text x="433" y="109" text-anchor="middle" font-size="9" fill="#fff">500</text>
  <rect x="470" y="92" width="66" height="26" rx="4" fill="#059669"/>
  <text x="503" y="109" text-anchor="middle" font-size="9" fill="#fff">600</text>
  <rect x="540" y="92" width="66" height="26" rx="4" fill="#047857"/>
  <text x="573" y="109" text-anchor="middle" font-size="9" fill="#fff">700</text>
  <rect x="610" y="92" width="66" height="26" rx="4" fill="#065f46"/>
  <text x="643" y="109" text-anchor="middle" font-size="9" fill="#fff">800</text>
  <rect x="680" y="92" width="55" height="26" rx="4" fill="#022c22"/>
  <text x="707" y="109" text-anchor="middle" font-size="9" fill="#fff">900+</text>

  <!-- Color row: red -->
  <text x="14" y="148" font-size="11" fill="#94a3b8">red</text>
  <rect x="50" y="132" width="66" height="26" rx="4" fill="#fef2f2"/>
  <text x="83" y="149" text-anchor="middle" font-size="9" fill="#334155">50</text>
  <rect x="120" y="132" width="66" height="26" rx="4" fill="#fee2e2"/>
  <text x="153" y="149" text-anchor="middle" font-size="9" fill="#334155">100</text>
  <rect x="190" y="132" width="66" height="26" rx="4" fill="#fecaca"/>
  <text x="223" y="149" text-anchor="middle" font-size="9" fill="#334155">200</text>
  <rect x="260" y="132" width="66" height="26" rx="4" fill="#fca5a5"/>
  <text x="293" y="149" text-anchor="middle" font-size="9" fill="#334155">300</text>
  <rect x="330" y="132" width="66" height="26" rx="4" fill="#f87171"/>
  <text x="363" y="149" text-anchor="middle" font-size="9" fill="#334155">400</text>
  <rect x="400" y="132" width="66" height="26" rx="4" fill="#ef4444"/>
  <text x="433" y="149" text-anchor="middle" font-size="9" fill="#fff">500</text>
  <rect x="470" y="132" width="66" height="26" rx="4" fill="#dc2626"/>
  <text x="503" y="149" text-anchor="middle" font-size="9" fill="#fff">600</text>
  <rect x="540" y="132" width="66" height="26" rx="4" fill="#b91c1c"/>
  <text x="573" y="149" text-anchor="middle" font-size="9" fill="#fff">700</text>
  <rect x="610" y="132" width="66" height="26" rx="4" fill="#991b1b"/>
  <text x="643" y="149" text-anchor="middle" font-size="9" fill="#fff">800</text>
  <rect x="680" y="132" width="55" height="26" rx="4" fill="#450a0a"/>
  <text x="707" y="149" text-anchor="middle" font-size="9" fill="#fff">900+</text>

  <!-- Color row: amber -->
  <text x="14" y="188" font-size="11" fill="#94a3b8">amber</text>
  <rect x="50" y="172" width="66" height="26" rx="4" fill="#fffbeb"/>
  <text x="83" y="189" text-anchor="middle" font-size="9" fill="#334155">50</text>
  <rect x="120" y="172" width="66" height="26" rx="4" fill="#fef3c7"/>
  <text x="153" y="189" text-anchor="middle" font-size="9" fill="#334155">100</text>
  <rect x="190" y="172" width="66" height="26" rx="4" fill="#fde68a"/>
  <text x="223" y="189" text-anchor="middle" font-size="9" fill="#334155">200</text>
  <rect x="260" y="172" width="66" height="26" rx="4" fill="#fcd34d"/>
  <text x="293" y="189" text-anchor="middle" font-size="9" fill="#334155">300</text>
  <rect x="330" y="172" width="66" height="26" rx="4" fill="#fbbf24"/>
  <text x="363" y="189" text-anchor="middle" font-size="9" fill="#334155">400</text>
  <rect x="400" y="172" width="66" height="26" rx="4" fill="#f59e0b"/>
  <text x="433" y="189" text-anchor="middle" font-size="9" fill="#fff">500</text>
  <rect x="470" y="172" width="66" height="26" rx="4" fill="#d97706"/>
  <text x="503" y="189" text-anchor="middle" font-size="9" fill="#fff">600</text>
  <rect x="540" y="172" width="66" height="26" rx="4" fill="#b45309"/>
  <text x="573" y="189" text-anchor="middle" font-size="9" fill="#fff">700</text>
  <rect x="610" y="172" width="66" height="26" rx="4" fill="#92400e"/>
  <text x="643" y="189" text-anchor="middle" font-size="9" fill="#fff">800</text>
  <rect x="680" y="172" width="55" height="26" rx="4" fill="#451a03"/>
  <text x="707" y="189" text-anchor="middle" font-size="9" fill="#fff">900+</text>

  <!-- Separator -->
  <line x1="40" y1="210" x2="760" y2="210" stroke="#1e293b" stroke-width="1"/>

  <!-- Legend: Usos por escala -->
  <text x="400" y="230" text-anchor="middle" font-size="12" font-weight="600" fill="#38bdf8">Usos recomendados por escala</text>
  <rect x="40" y="240" width="130" height="80" rx="8" fill="#1e293b"/>
  <text x="105" y="258" text-anchor="middle" font-size="11" font-weight="700" fill="#e2e8f0">50 — 100</text>
  <text x="105" y="274" text-anchor="middle" font-size="10" fill="#94a3b8">Fondos suaves</text>
  <text x="105" y="288" text-anchor="middle" font-size="10" fill="#94a3b8">Badges claros</text>
  <text x="105" y="302" text-anchor="middle" font-size="10" fill="#94a3b8">Sections tintadas</text>

  <rect x="185" y="240" width="130" height="80" rx="8" fill="#1e293b"/>
  <text x="250" y="258" text-anchor="middle" font-size="11" font-weight="700" fill="#e2e8f0">200 — 300</text>
  <text x="250" y="274" text-anchor="middle" font-size="10" fill="#94a3b8">Bordes</text>
  <text x="250" y="288" text-anchor="middle" font-size="10" fill="#94a3b8">Separadores</text>
  <text x="250" y="302" text-anchor="middle" font-size="10" fill="#94a3b8">Accents sutiles</text>

  <rect x="330" y="240" width="130" height="80" rx="8" fill="#1e293b"/>
  <text x="395" y="258" text-anchor="middle" font-size="11" font-weight="700" fill="#e2e8f0">400 — 600</text>
  <text x="395" y="274" text-anchor="middle" font-size="10" fill="#94a3b8">Botones</text>
  <text x="395" y="288" text-anchor="middle" font-size="10" fill="#94a3b8">Íconos</text>
  <text x="395" y="302" text-anchor="middle" font-size="10" fill="#94a3b8">Colores de acento</text>

  <rect x="475" y="240" width="130" height="80" rx="8" fill="#1e293b"/>
  <text x="540" y="258" text-anchor="middle" font-size="11" font-weight="700" fill="#e2e8f0">700 — 900</text>
  <text x="540" y="274" text-anchor="middle" font-size="10" fill="#94a3b8">Texto principal</text>
  <text x="540" y="288" text-anchor="middle" font-size="10" fill="#94a3b8">Texto headings</text>
  <text x="540" y="302" text-anchor="middle" font-size="10" fill="#94a3b8">Fondos oscuros</text>

  <rect x="620" y="240" width="130" height="80" rx="8" fill="#1e293b"/>
  <text x="685" y="258" text-anchor="middle" font-size="11" font-weight="700" fill="#e2e8f0">950</text>
  <text x="685" y="274" text-anchor="middle" font-size="10" fill="#94a3b8">Dark backgrounds</text>
  <text x="685" y="288" text-anchor="middle" font-size="10" fill="#94a3b8">Dark mode base</text>
  <text x="685" y="302" text-anchor="middle" font-size="10" fill="#94a3b8">Max contraste</text>
</svg>