<svg xmlns="http://www.w3.org/2000/svg" viewBox="0 0 840 420" width="100%">
  <rect width="840" height="420" fill="#0f172a"/>

  <text x="400" y="36" font-family="system-ui, sans-serif" font-size="20" font-weight="700" fill="#f1f5f9" text-anchor="middle">Layout Responsive — Transformaciones Clave</text>

  <!-- ─── ROW 1: flex-col → flex-row ─── -->
  <text x="40" y="70" font-family="monospace" font-size="12" fill="#38bdf8">flex flex-col md:flex-row</text>

  <!-- Mobile: columna -->
  <rect x="40" y="80" width="140" height="110" rx="8" fill="#1e293b" stroke="#334155" stroke-width="1"/>
  <text x="110" y="72" font-family="system-ui, sans-serif" font-size="10" fill="#64748b" text-anchor="middle">mobile</text>
  <rect x="56" y="92" width="108" height="36" rx="4" fill="#1e3a5f"/>
  <text x="110" y="115" font-family="system-ui, sans-serif" font-size="10" fill="#7dd3fc" text-anchor="middle">Texto</text>
  <rect x="56" y="136" width="108" height="36" rx="4" fill="#172554"/>
  <text x="110" y="159" font-family="system-ui, sans-serif" font-size="10" fill="#93c5fd" text-anchor="middle">Imagen</text>

  <!-- arrow -->
  <text x="200" y="140" font-family="system-ui, sans-serif" font-size="22" fill="#334155" text-anchor="middle">→</text>

  <!-- Desktop: fila -->
  <rect x="224" y="80" width="240" height="110" rx="8" fill="#1e293b" stroke="#334155" stroke-width="1"/>
  <text x="344" y="72" font-family="system-ui, sans-serif" font-size="10" fill="#64748b" text-anchor="middle">desktop (md:)</text>
  <rect x="238" y="96" width="100" height="80" rx="4" fill="#1e3a5f"/>
  <text x="288" y="141" font-family="system-ui, sans-serif" font-size="10" fill="#7dd3fc" text-anchor="middle">Texto</text>
  <rect x="348" y="96" width="100" height="80" rx="4" fill="#172554"/>
  <text x="398" y="141" font-family="system-ui, sans-serif" font-size="10" fill="#93c5fd" text-anchor="middle">Imagen</text>

  <!-- ─── ROW 2: grid cols ─── -->
  <text x="500" y="70" font-family="monospace" font-size="12" fill="#38bdf8">grid-cols-1 sm:grid-cols-2 lg:grid-cols-3</text>

  <!-- 1 col -->
  <rect x="500" y="80" width="60" height="110" rx="6" fill="#1e293b" stroke="#334155" stroke-width="1"/>
  <text x="530" y="72" font-family="system-ui, sans-serif" font-size="9" fill="#64748b" text-anchor="middle">mobile</text>
  <rect x="508" y="90" width="44" height="26" rx="3" fill="#1e3a5f"/>
  <rect x="508" y="122" width="44" height="26" rx="3" fill="#1e3a5f"/>
  <rect x="508" y="154" width="44" height="26" rx="3" fill="#1e3a5f"/>

  <text x="572" y="140" font-family="system-ui, sans-serif" font-size="20" fill="#334155">→</text>

  <!-- 2 cols -->
  <rect x="590" y="80" width="80" height="110" rx="6" fill="#1e293b" stroke="#334155" stroke-width="1"/>
  <text x="630" y="72" font-family="system-ui, sans-serif" font-size="9" fill="#64748b" text-anchor="middle">sm:</text>
  <rect x="597" y="90" width="32" height="26" rx="3" fill="#1e3a5f"/>
  <rect x="635" y="90" width="32" height="26" rx="3" fill="#1e3a5f"/>
  <rect x="597" y="122" width="32" height="26" rx="3" fill="#1e3a5f"/>
  <rect x="635" y="122" width="32" height="26" rx="3" fill="#1e3a5f"/>
  <rect x="597" y="154" width="32" height="12" rx="3" fill="#1e3a5f"/>
  <rect x="635" y="154" width="32" height="12" rx="3" fill="#1e3a5f"/>

  <text x="682" y="140" font-family="system-ui, sans-serif" font-size="20" fill="#334155">→</text>

  <!-- 3 cols -->
  <rect x="700" y="80" width="90" height="110" rx="6" fill="#1e293b" stroke="#38bdf8" stroke-width="1.5"/>
  <text x="745" y="72" font-family="system-ui, sans-serif" font-size="9" fill="#38bdf8" text-anchor="middle">lg:</text>
  <rect x="706" y="90" width="24" height="26" rx="3" fill="#1e3a5f"/>
  <rect x="736" y="90" width="24" height="26" rx="3" fill="#1e3a5f"/>
  <rect x="766" y="90" width="18" height="26" rx="3" fill="#1e3a5f"/>
  <rect x="706" y="122" width="24" height="26" rx="3" fill="#1e3a5f"/>
  <rect x="736" y="122" width="24" height="26" rx="3" fill="#1e3a5f"/>
  <rect x="766" y="122" width="18" height="26" rx="3" fill="#1e3a5f"/>

  <!-- ─── ROW 3: visibility ─── -->
  <text x="40" y="222" font-family="system-ui, sans-serif" font-size="13" font-weight="600" fill="#94a3b8">Visibilidad Responsive</text>

  <!-- hidden md:block -->
  <rect x="40" y="234" width="230" height="60" rx="8" fill="#1e293b" stroke="#334155" stroke-width="1"/>
  <text x="56" y="258" font-family="monospace" font-size="12" fill="#7dd3fc">hidden md:block</text>
  <text x="56" y="278" font-family="system-ui, sans-serif" font-size="11" fill="#64748b">Oculto en mobile · visible en md+</text>
  <rect x="280" y="234" width="8" height="60" rx="4" fill="#0284c7" opacity="0.4"/>
  <rect x="298" y="238" width="70" height="52" rx="8" fill="#1e3a5f" opacity="0.4"/>
  <text x="333" y="261" font-family="system-ui, sans-serif" font-size="9" fill="#64748b" text-anchor="middle">mobile</text>
  <line x1="298" y1="238" x2="368" y2="290" stroke="#ef4444" stroke-width="1.5"/>
  <line x1="368" y1="238" x2="298" y2="290" stroke="#ef4444" stroke-width="1.5"/>
  <rect x="388" y="238" width="70" height="52" rx="8" fill="#1e3a5f"/>
  <text x="423" y="261" font-family="system-ui, sans-serif" font-size="9" fill="#38bdf8" text-anchor="middle">md:</text>
  <text x="423" y="275" font-family="system-ui, sans-serif" font-size="9" fill="#38bdf8" text-anchor="middle">visible</text>

  <!-- block md:hidden -->
  <rect x="490" y="234" width="230" height="60" rx="8" fill="#1e293b" stroke="#334155" stroke-width="1"/>
  <text x="506" y="258" font-family="monospace" font-size="12" fill="#6ee7b7">block md:hidden</text>
  <text x="506" y="278" font-family="system-ui, sans-serif" font-size="11" fill="#64748b">Visible en mobile · oculto en md+</text>
  <rect x="730" y="234" width="8" height="60" rx="4" fill="#0284c7" opacity="0.4"/>
  <rect x="748" y="238" width="70" height="52" rx="8" fill="#1e3a5f"/>
  <text x="783" y="261" font-family="system-ui, sans-serif" font-size="9" fill="#38bdf8" text-anchor="middle">mobile</text>
  <text x="783" y="275" font-family="system-ui, sans-serif" font-size="9" fill="#38bdf8" text-anchor="middle">visible</text>

  <!-- ─── ROW 4: spacing & type responsive ─── -->
  <rect x="40" y="320" width="720" height="80" rx="10" fill="#1e293b" stroke="#334155" stroke-width="1"/>
  <text x="60" y="344" font-family="system-ui, sans-serif" font-size="13" font-weight="600" fill="#94a3b8">Tipografía y Espaciado Responsive</text>
  <rect x="60" y="356" width="660" height="32" rx="6" fill="#0f172a"/>
  <text x="76" y="370" font-family="monospace" font-size="11" fill="#64748b">&lt;h1 class="</text>
  <text x="152" y="370" font-family="monospace" font-size="11" fill="#7dd3fc">text-2xl</text>
  <text x="208" y="370" font-family="monospace" font-size="11" fill="#a78bfa">sm:text-4xl</text>
  <text x="284" y="370" font-family="monospace" font-size="11" fill="#6ee7b7">md:text-5xl</text>
  <text x="360" y="370" font-family="monospace" font-size="11" fill="#fcd34d">lg:text-7xl</text>
  <text x="430" y="370" font-family="monospace" font-size="11" fill="#f87171">font-black</text>
  <text x="495" y="370" font-family="monospace" font-size="11" fill="#64748b">"&gt;Título&lt;/h1&gt;</text>
  <text x="76" y="386" font-family="monospace" font-size="11" fill="#64748b">&lt;section class="</text>
  <text x="175" y="386" font-family="monospace" font-size="11" fill="#7dd3fc">py-12</text>
  <text x="212" y="386" font-family="monospace" font-size="11" fill="#6ee7b7">md:py-20</text>
  <text x="270" y="386" font-family="monospace" font-size="11" fill="#fcd34d">lg:py-32</text>
  <text x="328" y="386" font-family="monospace" font-size="11" fill="#7dd3fc">px-4</text>
  <text x="360" y="386" font-family="monospace" font-size="11" fill="#6ee7b7">sm:px-6</text>
  <text x="412" y="386" font-family="monospace" font-size="11" fill="#fcd34d">lg:px-8</text>
  <text x="458" y="386" font-family="monospace" font-size="11" fill="#64748b">"&gt;</text>
</svg>
